# xmcd
#
# Track frame offsets: 
#        300
#        21051
#        36052
#        41780
#        54388
#        66536
#        89045
#        111835
#        124249
#        152351
#
# Disc length: 2350 seconds
#
# Revision: 0
# Processed by: cddbd v1.5.2PL0 Copyright (c) Steve Scherf et al.
# Submitted via: ExactAudioCopy v1.0b1
#
DISCID=88092a0a
DTITLE=The Rex Carroll Band - That Was Then, This Is Now
DYEAR=2010
DGENRE=Blues Rock
TTITLE0=Find A Way
TTITLE1=Circle Of Love
TTITLE2=Foolsgold
TTITLE3=Working Man's Blues
TTITLE4=Walk A Mile
TTITLE5=Rock My World
TTITLE6=Witch Doctor Bones
TTITLE7=Delta Memories
TTITLE8=My Train
TTITLE9=Throw Them Bones
EXTD=
EXTT0=
EXTT1=
EXTT2=
EXTT3=
EXTT4=
EXTT5=
EXTT6=
EXTT7=
EXTT8=
EXTT9=
PLAYORDER=
